<svg width="59" height="66" viewBox="0 0 59 66" fill="none" xmlns="http://www.w3.org/2000/svg">
<g filter="url(#filter0_f)">
<ellipse cx="29.5" cy="56" rx="10.5" ry="4" fill="#BDBDBD"/>
</g>
<path d="M58.1866 8.8584L40.2401 0C38.3873 2.55195 34.2855 4.33281 29.5016 4.33281C24.7177 4.33281 20.6159 2.55195 18.7632 0L0.816695 8.8584C0.0885099 9.22559 -0.206451 10.1068 0.153033 10.832L5.42546 21.3428C5.79416 22.068 6.67904 22.3617 7.40723 22.0037L12.6243 19.4609C13.6014 18.9836 14.7444 19.6904 14.7444 20.7828V44.0625C14.7444 45.6873 16.0625 47 17.694 47H41.2909C42.9224 47 44.2405 45.6873 44.2405 44.0625V20.7736C44.2405 19.6904 45.3834 18.9744 46.3605 19.4518L51.5776 21.9945C52.3058 22.3617 53.1907 22.068 53.5594 21.3336L58.841 10.832C59.2097 10.1068 58.9148 9.21641 58.1866 8.8584V8.8584Z" fill="white"/>
<path d="M52.352 12.1621L38.0556 5C36.5797 7.06328 33.3122 8.50312 29.5013 8.50312C25.6904 8.50312 22.4229 7.06328 20.947 5L6.65059 12.1621C6.07051 12.459 5.83554 13.1715 6.12191 13.7578L10.322 22.2559C10.6157 22.8422 11.3206 23.0797 11.9007 22.7902L16.0567 20.7344C16.835 20.3484 17.7455 20.9199 17.7455 21.8031V40.625C17.7455 41.9387 18.7955 43 20.0952 43H38.8927C40.1924 43 41.2424 41.9387 41.2424 40.625V21.7957C41.2424 20.9199 42.1529 20.341 42.9313 20.727L47.0873 22.7828C47.6673 23.0797 48.3722 22.8422 48.666 22.2484L52.8734 13.7578C53.1671 13.1715 52.9321 12.4516 52.352 12.1621Z" fill="#E0C35C"/>
<defs>
<filter id="filter0_f" x="13" y="46" width="33" height="20" filterUnits="userSpaceOnUse" color-interpolation-filters="sRGB">
<feFlood flood-opacity="0" result="BackgroundImageFix"/>
<feBlend mode="normal" in="SourceGraphic" in2="BackgroundImageFix" result="shape"/>
<feGaussianBlur stdDeviation="3" result="effect1_foregroundBlur"/>
</filter>
</defs>
</svg>
