<svg width="33" height="64" viewBox="0 0 33 64" fill="none" xmlns="http://www.w3.org/2000/svg">
<g filter="url(#filter0_f)">
<ellipse cx="16.5" cy="54" rx="10.5" ry="4" fill="#BDBDBD"/>
</g>
<path d="M25.95 0H7.05C4.81406 0 3 1.93164 3 4.3125V41.6875C3 44.0684 4.81406 46 7.05 46H25.95C28.1859 46 30 44.0684 30 41.6875V4.3125C30 1.93164 28.1859 0 25.95 0ZM16.5 43.125C15.0066 43.125 13.8 41.8402 13.8 40.25C13.8 38.6598 15.0066 37.375 16.5 37.375C17.9934 37.375 19.2 38.6598 19.2 40.25C19.2 41.8402 17.9934 43.125 16.5 43.125ZM25.95 33.4219C25.95 34.0148 25.4944 34.5 24.9375 34.5H8.0625C7.50563 34.5 7.05 34.0148 7.05 33.4219V5.39062C7.05 4.79766 7.50563 4.3125 8.0625 4.3125H24.9375C25.4944 4.3125 25.95 4.79766 25.95 5.39062V33.4219Z" fill="white"/>
<path d="M6 42.5V4.5H28V42.5H6Z" fill="white" stroke="white"/>
<path d="M24.55 4H8.45C6.54531 4 5 5.6377 5 7.65625V39.3438C5 41.3623 6.54531 43 8.45 43H24.55C26.4547 43 28 41.3623 28 39.3438V7.65625C28 5.6377 26.4547 4 24.55 4ZM16.5 40.5625C15.2278 40.5625 14.2 39.4732 14.2 38.125C14.2 36.7768 15.2278 35.6875 16.5 35.6875C17.7722 35.6875 18.8 36.7768 18.8 38.125C18.8 39.4732 17.7722 40.5625 16.5 40.5625ZM24.55 32.3359C24.55 32.8387 24.1619 33.25 23.6875 33.25H9.3125C8.83812 33.25 8.45 32.8387 8.45 32.3359V8.57031C8.45 8.06758 8.83812 7.65625 9.3125 7.65625H23.6875C24.1619 7.65625 24.55 8.06758 24.55 8.57031V32.3359Z" fill="#484848"/>
<defs>
<filter id="filter0_f" x="0" y="44" width="33" height="20" filterUnits="userSpaceOnUse" color-interpolation-filters="sRGB">
<feFlood flood-opacity="0" result="BackgroundImageFix"/>
<feBlend mode="normal" in="SourceGraphic" in2="BackgroundImageFix" result="shape"/>
<feGaussianBlur stdDeviation="3" result="effect1_foregroundBlur"/>
</filter>
</defs>
</svg>
