<svg width="43" height="66" viewBox="0 0 43 66" fill="none" xmlns="http://www.w3.org/2000/svg">
<path d="M33.1031 12.4753C35.5533 12.9269 37.5629 14.2808 39.1338 16.537C40.5159 18.5359 41.4585 21.0503 41.9604 24.0802C42.401 26.8528 42.368 29.6244 41.8661 32.397C41.1122 36.9742 39.6045 40.8106 37.343 43.9052C34.6409 47.6449 31.2491 49.5143 27.1658 49.5143C26.16 49.5143 25.0618 49.1922 23.8674 48.5472C23.0503 48.0318 22.1399 47.7735 21.1341 47.7735C20.1284 47.7735 19.2189 48.0318 18.4009 48.5472C17.2065 49.1922 16.1083 49.5143 15.1025 49.5143C11.0192 49.5143 7.62736 47.6449 4.92525 43.9052C2.66374 40.8106 1.15607 36.9742 0.402236 32.397C-0.0996921 29.6244 -0.132714 26.8528 0.307889 24.0802C0.809817 21.0503 1.75235 18.5359 3.13454 16.537C4.70542 14.2808 6.71502 12.9269 9.16523 12.4753C10.6729 12.2171 12.7457 12.4434 15.3846 13.1522C17.6461 13.7973 19.5623 14.5709 21.1332 15.4732C22.7041 14.5709 24.6203 13.7973 26.8818 13.1522C29.5216 12.4434 31.5954 12.2171 33.1031 12.4753ZM27.9196 8.51027C27.0403 9.34872 25.877 9.96088 24.4325 10.3477C23.4268 10.6697 22.3286 10.8313 21.1341 10.8313L19.7208 10.7345C19.5953 9.83226 19.5953 8.80039 19.7208 7.6399C19.9727 5.31892 20.6945 3.54627 21.888 2.32098C22.7673 1.48253 23.9306 0.870368 25.3751 0.483538C26.3808 0.161502 27.479 0 28.6734 0L30.0868 0.0967076L30.1811 1.54732C30.1811 2.77261 30.0236 3.90022 29.7103 4.93209C29.3339 6.41461 28.7376 7.60799 27.9196 8.51027Z" fill="white"/>
<path d="M18 17L20.087 8.18518L30 3L27.913 17H18Z" fill="white" stroke="white"/>
<path d="M30.4108 14.3301C32.4397 14.704 34.1037 15.8251 35.4045 17.6934C36.549 19.3486 37.3294 21.4306 37.7451 23.9395C38.1099 26.2353 38.0826 28.5303 37.6669 30.8262C37.0427 34.6163 35.7943 37.793 33.9217 40.3555C31.6842 43.4521 28.8757 45 25.4945 45C24.6617 45 23.7523 44.7333 22.7632 44.1992C22.0867 43.7724 21.3328 43.5586 20.5 43.5586C19.6672 43.5586 18.9141 43.7724 18.2368 44.1992C17.2477 44.7333 16.3383 45 15.5055 45C12.1243 45 9.31579 43.4521 7.07833 40.3555C5.2057 37.793 3.95728 34.6163 3.33307 30.8262C2.91745 28.5303 2.89011 26.2353 3.25495 23.9395C3.67056 21.4306 4.45102 19.3486 5.59554 17.6934C6.8963 15.8251 8.56033 14.704 10.5892 14.3301C11.8376 14.1163 13.554 14.3037 15.7391 14.8906C17.6118 15.4247 19.1985 16.0654 20.4992 16.8125C21.8 16.0654 23.3867 15.4247 25.2593 14.8906C27.4452 14.3037 29.1624 14.1163 30.4108 14.3301ZM26.1187 11.0469C25.3906 11.7412 24.4273 12.248 23.2312 12.5684C22.3984 12.835 21.489 12.9688 20.5 12.9688L19.3297 12.8887C19.2258 12.1415 19.2258 11.2871 19.3297 10.3262C19.5383 8.4043 20.1359 6.93646 21.1242 5.92188C21.8523 5.2276 22.8156 4.7207 24.0117 4.40039C24.8445 4.13373 25.7538 4 26.7429 4L27.9132 4.08008L27.9913 5.28125C27.9913 6.29584 27.8608 7.22955 27.6015 8.08398C27.2897 9.31158 26.796 10.2997 26.1187 11.0469Z" fill="#C66257"/>
<g filter="url(#filter0_f)">
<ellipse cx="20.5" cy="56" rx="10.5" ry="4" fill="#BDBDBD"/>
</g>
<defs>
<filter id="filter0_f" x="4" y="46" width="33" height="20" filterUnits="userSpaceOnUse" color-interpolation-filters="sRGB">
<feFlood flood-opacity="0" result="BackgroundImageFix"/>
<feBlend mode="normal" in="SourceGraphic" in2="BackgroundImageFix" result="shape"/>
<feGaussianBlur stdDeviation="3" result="effect1_foregroundBlur"/>
</filter>
</defs>
</svg>
