<svg width="35" height="62" viewBox="0 0 35 62" fill="none" xmlns="http://www.w3.org/2000/svg">
<path d="M27.4108 10.3301C29.4397 10.704 31.1037 11.8251 32.4045 13.6934C33.549 15.3486 34.3294 17.4306 34.7451 19.9395C35.1099 22.2353 35.0825 24.5303 34.6669 26.8262C34.0427 30.6163 32.7943 33.793 30.9217 36.3555C28.6842 39.4521 25.8757 41 22.4945 41C21.6617 41 20.7523 40.7333 19.7632 40.1992C19.0867 39.7724 18.3328 39.5586 17.5 39.5586C16.6672 39.5586 15.9141 39.7724 15.2368 40.1992C14.2477 40.7333 13.3383 41 12.5055 41C9.12434 41 6.31579 39.4521 4.07833 36.3555C2.2057 33.793 0.957279 30.6163 0.333069 26.8262C-0.0825494 24.5303 -0.109893 22.2353 0.254945 19.9395C0.670564 17.4306 1.45102 15.3486 2.59554 13.6934C3.8963 11.8251 5.56033 10.704 7.58921 10.3301C8.83763 10.1163 10.554 10.3037 12.7391 10.8906C14.6118 11.4247 16.1985 12.0654 17.4992 12.8125C18.8 12.0654 20.3867 11.4247 22.2593 10.8906C24.4452 10.3037 26.1624 10.1163 27.4108 10.3301ZM23.1187 7.04688C22.3906 7.74115 21.4273 8.24805 20.2312 8.56836C19.3984 8.83502 18.489 8.96875 17.5 8.96875L16.3297 8.88867C16.2258 8.14154 16.2258 7.28711 16.3297 6.32617C16.5383 4.4043 17.1359 2.93646 18.1242 1.92188C18.8523 1.2276 19.8156 0.720703 21.0117 0.400391C21.8445 0.13373 22.7538 0 23.7429 0L24.9132 0.0800781L24.9913 1.28125C24.9913 2.29584 24.8608 3.22955 24.6015 4.08398C24.2897 5.31158 23.796 6.29975 23.1187 7.04688Z" fill="#C66257"/>
<g filter="url(#filter0_f)">
<ellipse cx="17.5" cy="52" rx="10.5" ry="4" fill="#BDBDBD"/>
</g>
<defs>
<filter id="filter0_f" x="1" y="42" width="33" height="20" filterUnits="userSpaceOnUse" color-interpolation-filters="sRGB">
<feFlood flood-opacity="0" result="BackgroundImageFix"/>
<feBlend mode="normal" in="SourceGraphic" in2="BackgroundImageFix" result="shape"/>
<feGaussianBlur stdDeviation="3" result="effect1_foregroundBlur"/>
</filter>
</defs>
</svg>
