<svg width="33" height="53" viewBox="0 0 33 53" fill="none" xmlns="http://www.w3.org/2000/svg">
<g filter="url(#filter0_f)">
<ellipse cx="16.5" cy="43" rx="10.5" ry="4" fill="#BDBDBD"/>
</g>
<path d="M18.0348 0C12.1375 0 8.31779 2.42718 5.31894 6.75584C4.77493 7.54107 4.94265 8.61769 5.70151 9.1957L8.88869 11.6233C9.65508 12.2071 10.7455 12.0706 11.3455 11.3155C13.1962 8.98641 14.5691 7.64542 17.4599 7.64542C19.7329 7.64542 22.5443 9.11488 22.5443 11.329C22.5443 13.0028 21.1688 13.8624 18.9245 15.1263C16.3073 16.6003 12.844 18.4347 12.844 23.0235V23.75C12.844 24.7338 13.6378 25.5312 14.6172 25.5312H19.9716C20.9509 25.5312 21.7448 24.7338 21.7448 23.75V23.3215C21.7448 20.1405 31 20.008 31 11.4C31.0001 4.91744 24.3061 0 18.0348 0ZM17.2944 27.7177C14.4724 27.7177 12.1764 30.024 12.1764 32.8589C12.1764 35.6937 14.4724 38 17.2944 38C20.1165 38 22.4124 35.6937 22.4124 32.8588C22.4124 30.0239 20.1165 27.7177 17.2944 27.7177Z" fill="white"/>
<path d="M17.6266 2C12.6379 2 9.40671 4.04394 6.8699 7.68913C6.40971 8.35038 6.55158 9.257 7.19352 9.74375L9.88965 11.7881C10.538 12.2796 11.4604 12.1647 11.968 11.5288C13.5335 9.5675 14.6948 8.43825 17.1403 8.43825C19.063 8.43825 21.4413 9.67569 21.4413 11.5402C21.4413 12.9497 20.2777 13.6736 18.3792 14.7379C16.1653 15.9792 13.2355 17.5239 13.2355 21.3883V22C13.2355 22.8284 13.9071 23.5 14.7355 23.5H19.265C20.0934 23.5 20.765 22.8284 20.765 22V21.6392C20.765 18.9604 28.5942 18.8489 28.5942 11.6C28.5943 6.141 22.9316 2 17.6266 2ZM17.0003 25.3412C14.613 25.3412 12.6708 27.2834 12.6708 29.6706C12.6708 32.0578 14.613 34 17.0003 34C19.3875 34 21.3297 32.0578 21.3297 29.6706C21.3297 27.2833 19.3875 25.3412 17.0003 25.3412Z" fill="#B65C87"/>
<defs>
<filter id="filter0_f" x="0" y="33" width="33" height="20" filterUnits="userSpaceOnUse" color-interpolation-filters="sRGB">
<feFlood flood-opacity="0" result="BackgroundImageFix"/>
<feBlend mode="normal" in="SourceGraphic" in2="BackgroundImageFix" result="shape"/>
<feGaussianBlur stdDeviation="3" result="effect1_foregroundBlur"/>
</filter>
</defs>
</svg>
