<svg width="46" height="66" viewBox="0 0 46 66" fill="none" xmlns="http://www.w3.org/2000/svg">
<g filter="url(#filter0_f)">
<ellipse cx="22.5" cy="56" rx="10.5" ry="4" fill="#BDBDBD"/>
</g>
<path d="M0 15L1.5 11.5L34.5 7L45.5 25.5V29L41.5 43L38 47H9V30.5L0 15Z" fill="white"/>
<path d="M46 29.5V26L40.5 38.5L41.5 43L46 29.5Z" fill="white"/>
<path d="M0.0132731 16.9292C-0.195165 22.4177 2.06621 27.361 5.74982 30.7409V47H20.1249V29.0546L0.329524 14.3433C0.158472 15.1955 0.0527342 16.0601 0.0132731 16.9292V16.9292ZM45.7502 25.2441C43.8635 20.9187 41.3928 11.314 39.1808 8.10107C37.4561 5.59983 35.1686 3.55845 32.5109 2.14868C29.8531 0.738917 26.9028 0.00202142 23.9082 0L17.9686 0C10.5116 0 3.81638 4.64217 1.19023 11.3507L21.4914 26.4375H45.9784C45.9864 26.0276 45.9086 25.6208 45.7502 25.2441ZM28.7499 20.5625C28.1813 20.5625 27.6254 20.3902 27.1527 20.0674C26.6799 19.7447 26.3114 19.2859 26.0938 18.7491C25.8762 18.2124 25.8192 17.6217 25.9302 17.0519C26.0411 16.4821 26.3149 15.9587 26.717 15.5479C27.1191 15.1371 27.6313 14.8573 28.189 14.7439C28.7467 14.6306 29.3248 14.6888 29.8501 14.9111C30.3755 15.1334 30.8245 15.5099 31.1404 15.993C31.4563 16.4761 31.6249 17.044 31.6249 17.625C31.6233 18.4036 31.3198 19.1497 30.781 19.7003C30.2422 20.2508 29.5119 20.5608 28.7499 20.5625V20.5625ZM30.1874 33.7812H44.5625L46 29.375H22.9999V47H36.1064C37.3131 46.9999 38.4892 46.6119 39.4681 45.8909C40.4471 45.17 41.1792 44.1526 41.5608 42.983L41.6875 42.5938H30.1874C29.8062 42.5938 29.4405 42.439 29.171 42.1636C28.9014 41.8881 28.7499 41.5145 28.7499 41.125C28.7499 40.7355 28.9014 40.3619 29.171 40.0864C29.4405 39.811 29.8062 39.6562 30.1874 39.6562H42.6461L43.6048 36.7188H30.1874C29.8062 36.7188 29.4405 36.564 29.171 36.2886C28.9014 36.0131 28.7499 35.6395 28.7499 35.25C28.7499 34.8605 28.9014 34.4869 29.171 34.2114C29.4405 33.936 29.8062 33.7812 30.1874 33.7812Z" fill="white"/>
<path d="M4.01068 18.6874C3.84302 23.125 5.66195 27.1216 8.62486 29.8544V43H20.1874V28.491L4.26505 16.5967C4.12747 17.2857 4.04242 17.9848 4.01068 18.6874ZM40.7991 25.4102C39.2815 21.913 37.2942 14.1475 35.515 11.5498C34.1277 9.52752 32.2878 7.87704 30.15 6.73723C28.0123 5.59742 25.6392 5.00163 23.2305 5L18.453 5C12.455 5 7.06969 8.75324 4.95736 14.1771L21.2866 26.375H40.9827C40.9891 26.0436 40.9265 25.7147 40.7991 25.4102ZM27.1249 21.625C26.6676 21.625 26.2205 21.4857 25.8402 21.2247C25.4599 20.9638 25.1635 20.5928 24.9885 20.1589C24.8134 19.7249 24.7676 19.2474 24.8569 18.7867C24.9461 18.326 25.1663 17.9028 25.4897 17.5706C25.8132 17.2385 26.2252 17.0123 26.6738 16.9206C27.1224 16.829 27.5873 16.876 28.0099 17.0558C28.4325 17.2355 28.7936 17.54 29.0477 17.9305C29.3018 18.3211 29.4375 18.7803 29.4375 19.25C29.4361 19.8795 29.192 20.4828 28.7587 20.9279C28.3253 21.373 27.7378 21.6236 27.1249 21.625ZM28.2812 32.3125H39.8437L41 28.75H22.4999V43H33.0421C34.0127 42.9999 34.9587 42.6862 35.7461 42.1033C36.5335 41.5204 37.1224 40.6979 37.4293 39.7522L37.5312 39.4375H28.2812C27.9745 39.4375 27.6804 39.3124 27.4636 39.0897C27.2468 38.867 27.1249 38.5649 27.1249 38.25C27.1249 37.9351 27.2468 37.633 27.4636 37.4103C27.6804 37.1876 27.9745 37.0625 28.2812 37.0625H38.3023L39.0734 34.6875H28.2812C27.9745 34.6875 27.6804 34.5624 27.4636 34.3397C27.2468 34.117 27.1249 33.8149 27.1249 33.5C27.1249 33.1851 27.2468 32.883 27.4636 32.6603C27.6804 32.4376 27.9745 32.3125 28.2812 32.3125Z" fill="#6DB1C7"/>
<defs>
<filter id="filter0_f" x="6" y="46" width="33" height="20" filterUnits="userSpaceOnUse" color-interpolation-filters="sRGB">
<feFlood flood-opacity="0" result="BackgroundImageFix"/>
<feBlend mode="normal" in="SourceGraphic" in2="BackgroundImageFix" result="shape"/>
<feGaussianBlur stdDeviation="3" result="effect1_foregroundBlur"/>
</filter>
</defs>
</svg>
