<svg width="37" height="61" viewBox="0 0 37 61" fill="none" xmlns="http://www.w3.org/2000/svg">
<g filter="url(#filter0_f)">
<ellipse cx="18.5" cy="51" rx="10.5" ry="4" fill="#BDBDBD"/>
</g>
<path d="M0.0106762 13.6874C-0.156981 18.125 1.66195 22.1216 4.62486 24.8544V38H16.1874V23.491L0.265052 11.5967C0.127467 12.2857 0.0424166 12.9848 0.0106762 13.6874V13.6874ZM36.7991 20.4102C35.2815 16.913 33.2942 9.14746 31.515 6.5498C30.1277 4.52752 28.2878 2.87704 26.15 1.73723C24.0123 0.597422 21.6392 0.00163434 19.2305 0L14.453 0C8.45495 0 3.06969 3.75324 0.95736 9.17715L17.2866 21.375H36.9827C36.9891 21.0436 36.9265 20.7147 36.7991 20.4102ZM23.1249 16.625C22.6676 16.625 22.2205 16.4857 21.8402 16.2247C21.4599 15.9638 21.1635 15.5928 20.9885 15.1589C20.8134 14.7249 20.7676 14.2474 20.8569 13.7867C20.9461 13.326 21.1663 12.9028 21.4897 12.5706C21.8132 12.2385 22.2252 12.0123 22.6738 11.9206C23.1224 11.829 23.5873 11.876 24.0099 12.0558C24.4325 12.2355 24.7936 12.54 25.0477 12.9305C25.3018 13.3211 25.4374 13.7803 25.4374 14.25C25.4361 14.8795 25.192 15.4828 24.7587 15.9279C24.3253 16.373 23.7378 16.6236 23.1249 16.625V16.625ZM24.2812 27.3125H35.8437L37 23.75H18.4999V38H29.0421C30.0127 37.9999 30.9587 37.6862 31.7461 37.1033C32.5335 36.5204 33.1224 35.6979 33.4293 34.7522L33.5312 34.4375H24.2812C23.9745 34.4375 23.6804 34.3124 23.4636 34.0897C23.2468 33.867 23.1249 33.5649 23.1249 33.25C23.1249 32.9351 23.2468 32.633 23.4636 32.4103C23.6804 32.1876 23.9745 32.0625 24.2812 32.0625H34.3023L35.0734 29.6875H24.2812C23.9745 29.6875 23.6804 29.5624 23.4636 29.3397C23.2468 29.117 23.1249 28.8149 23.1249 28.5C23.1249 28.1851 23.2468 27.883 23.4636 27.6603C23.6804 27.4376 23.9745 27.3125 24.2812 27.3125Z" fill="#6DB1C7"/>
<defs>
<filter id="filter0_f" x="2" y="41" width="33" height="20" filterUnits="userSpaceOnUse" color-interpolation-filters="sRGB">
<feFlood flood-opacity="0" result="BackgroundImageFix"/>
<feBlend mode="normal" in="SourceGraphic" in2="BackgroundImageFix" result="shape"/>
<feGaussianBlur stdDeviation="3" result="effect1_foregroundBlur"/>
</filter>
</defs>
</svg>
