<svg width="50" height="62" viewBox="0 0 50 62" fill="none" xmlns="http://www.w3.org/2000/svg">
<path d="M27.5 6.5H23.5H23L22 44H27.5V6.5Z" fill="white"/>
<g filter="url(#filter0_f)">
<ellipse cx="25.5" cy="52" rx="10.5" ry="4" fill="#BDBDBD"/>
</g>
<path d="M47.0685 0.00533361C42.3115 0.310779 32.8565 1.42256 27.0196 5.46504C26.6168 5.74397 26.3885 6.23995 26.3885 6.75852V42.4956C26.3885 43.6299 27.4849 44.3469 28.4093 43.8205C34.4147 40.4007 43.0997 39.4676 47.3941 39.2123C48.8602 39.1249 50 37.7951 50 36.201V3.0205C50.0009 1.28113 48.6675 -0.0968087 47.0685 0.00533361ZM22.9804 5.46504C17.1444 1.42256 7.68937 0.311761 2.93234 0.00533361C1.33336 -0.0968087 0 1.28113 0 3.0205V36.202C0 37.797 1.13978 39.1268 2.60595 39.2133C6.90203 39.4686 15.5914 40.4026 21.5967 43.8244C22.5186 44.3498 23.6115 43.6339 23.6115 42.5024V6.74084C23.6115 6.22129 23.3841 5.74495 22.9804 5.46504Z" fill="white"/>
<path d="M41.7715 5.37903C38.1562 5.60985 30.9705 6.45001 26.5345 9.50485C26.2284 9.71563 26.0549 10.0904 26.0549 10.4823V37.4883C26.0549 38.3455 26.8881 38.8873 27.5907 38.4895C32.1547 35.9052 38.7552 35.2001 42.0189 35.0072C43.1331 34.9411 43.9993 33.9362 43.9993 32.7316V7.65755C44 6.34313 42.9867 5.30184 41.7715 5.37903ZM23.4648 9.50485C19.0295 6.45001 11.8438 5.61059 8.22854 5.37903C7.01333 5.30184 6 6.34313 6 7.65755V32.7324C6 33.9377 6.86622 34.9426 7.98049 35.0079C11.2455 35.2009 17.8493 35.9067 22.4132 38.4925C23.1139 38.8895 23.9444 38.3485 23.9444 37.4935V10.469C23.9444 10.0763 23.7716 9.71637 23.4648 9.50485Z" fill="#8DA0D0"/>
<defs>
<filter id="filter0_f" x="9" y="42" width="33" height="20" filterUnits="userSpaceOnUse" color-interpolation-filters="sRGB">
<feFlood flood-opacity="0" result="BackgroundImageFix"/>
<feBlend mode="normal" in="SourceGraphic" in2="BackgroundImageFix" result="shape"/>
<feGaussianBlur stdDeviation="3" result="effect1_foregroundBlur"/>
</filter>
</defs>
</svg>
