<svg width="44" height="60" viewBox="0 0 44 60" fill="none" xmlns="http://www.w3.org/2000/svg">
<g filter="url(#filter0_f)">
<ellipse cx="21.5" cy="50" rx="10.5" ry="4" fill="#BDBDBD"/>
</g>
<path d="M6.94766 9.25C9.50238 9.25 11.5794 7.17598 11.5794 4.625C11.5794 2.07402 9.50238 0 6.94766 0C4.39295 0 2.31589 2.07402 2.31589 4.625C2.31589 7.17598 4.39295 9.25 6.94766 9.25ZM34.7383 9.25C37.293 9.25 39.3701 7.17598 39.3701 4.625C39.3701 2.07402 37.293 0 34.7383 0C32.1836 0 30.1065 2.07402 30.1065 4.625C30.1065 7.17598 32.1836 9.25 34.7383 9.25ZM43.9512 25.6182L40.6511 12.1912C40.4122 11.2156 39.5293 10.5291 38.4944 10.4424C37.4088 11.1434 36.1206 11.5625 34.7311 11.5625C33.3415 11.5625 32.0533 11.1434 30.9678 10.4424C29.9329 10.5291 29.0499 11.2156 28.8111 12.1912L25.511 25.6182C25.2577 26.7094 26.1261 27.75 27.2985 27.75H31.2645V35.2656C31.2645 36.2268 32.0389 37 33.0014 37H36.4752C37.4378 37 38.2122 36.2268 38.2122 35.2656V27.75H42.1781C43.3505 27.75 44.219 26.7094 43.9512 25.6182ZM22.0009 0H19.685C19.0482 0 18.5271 0.520312 18.5271 1.15625V35.8438C18.5271 36.4797 19.0482 37 19.685 37H22.0009C22.6378 37 23.1589 36.4797 23.1589 35.8438V1.15625C23.1589 0.520312 22.6378 0 22.0009 0ZM10.7182 10.4352C9.63265 11.1434 8.3372 11.5625 6.94766 11.5625C5.55813 11.5625 4.26268 11.1434 3.17711 10.4352C1.39677 10.5869 0 12.0611 0 13.875V23.7031C0 24.6643 0.774375 25.4375 1.73692 25.4375H2.31589V35.2656C2.31589 36.2268 3.09026 37 4.0528 37H9.84252C10.8051 37 11.5794 36.2268 11.5794 35.2656V25.4375H12.1584C13.121 25.4375 13.8953 24.6643 13.8953 23.7031V13.875C13.8953 12.0611 12.4986 10.5869 10.7182 10.4352Z" fill="#155889"/>
<defs>
<filter id="filter0_f" x="5" y="40" width="33" height="20" filterUnits="userSpaceOnUse" color-interpolation-filters="sRGB">
<feFlood flood-opacity="0" result="BackgroundImageFix"/>
<feBlend mode="normal" in="SourceGraphic" in2="BackgroundImageFix" result="shape"/>
<feGaussianBlur stdDeviation="3" result="effect1_foregroundBlur"/>
</filter>
</defs>
</svg>
