<svg width="51" height="60" viewBox="0 0 51 60" fill="none" xmlns="http://www.w3.org/2000/svg">
<g filter="url(#filter0_f)">
<ellipse cx="25.5" cy="50" rx="10.5" ry="4" fill="#BDBDBD"/>
</g>
<path d="M8.05297 10.25C11.0141 10.25 13.4216 7.95176 13.4216 5.125C13.4216 2.29824 11.0141 0 8.05297 0C5.09183 0 2.68432 2.29824 2.68432 5.125C2.68432 7.95176 5.09183 10.25 8.05297 10.25ZM40.2649 10.25C43.226 10.25 45.6335 7.95176 45.6335 5.125C45.6335 2.29824 43.226 0 40.2649 0C37.3037 0 34.8962 2.29824 34.8962 5.125C34.8962 7.95176 37.3037 10.25 40.2649 10.25ZM50.9434 28.3877L47.1183 13.5092C46.8415 12.4281 45.8181 11.6674 44.6185 11.5713C43.3602 12.348 41.8671 12.8125 40.2565 12.8125C38.6459 12.8125 37.1527 12.348 35.8945 11.5713C34.6949 11.6674 33.6715 12.4281 33.3947 13.5092L29.5695 28.3877C29.2759 29.5969 30.2825 30.75 31.6415 30.75H36.2384V39.0781C36.2384 40.1432 37.136 41 38.2516 41H42.2781C43.3938 41 44.2914 40.1432 44.2914 39.0781V30.75H48.8883C50.2472 30.75 51.2538 29.5969 50.9434 28.3877ZM25.5011 0H22.8168C22.0786 0 21.4746 0.576562 21.4746 1.28125V39.7188C21.4746 40.4234 22.0786 41 22.8168 41H25.5011C26.2393 41 26.8432 40.4234 26.8432 39.7188V1.28125C26.8432 0.576562 26.2393 0 25.5011 0ZM12.4234 11.5633C11.1651 12.348 9.66357 12.8125 8.05297 12.8125C6.44238 12.8125 4.94084 12.348 3.68256 11.5633C1.61898 11.7314 0 13.365 0 15.375V26.2656C0 27.3307 0.897571 28.1875 2.01324 28.1875H2.68432V39.0781C2.68432 40.1432 3.5819 41 4.69757 41H11.4084C12.5241 41 13.4216 40.1432 13.4216 39.0781V28.1875H14.0927C15.2084 28.1875 16.1059 27.3307 16.1059 26.2656V15.375C16.1059 13.365 14.487 11.7314 12.4234 11.5633Z" fill="white"/>
<path d="M10.9477 11.25C13.5024 11.25 15.5794 9.17598 15.5794 6.625C15.5794 4.07402 13.5024 2 10.9477 2C8.39295 2 6.31589 4.07402 6.31589 6.625C6.31589 9.17598 8.39295 11.25 10.9477 11.25ZM38.7383 11.25C41.293 11.25 43.3701 9.17598 43.3701 6.625C43.3701 4.07402 41.293 2 38.7383 2C36.1836 2 34.1065 4.07402 34.1065 6.625C34.1065 9.17598 36.1836 11.25 38.7383 11.25ZM47.9512 27.6182L44.6511 14.1912C44.4122 13.2156 43.5293 12.5291 42.4944 12.4424C41.4088 13.1434 40.1206 13.5625 38.7311 13.5625C37.3415 13.5625 36.0533 13.1434 34.9678 12.4424C33.9329 12.5291 33.0499 13.2156 32.8111 14.1912L29.511 27.6182C29.2577 28.7094 30.1261 29.75 31.2985 29.75H35.2645V37.2656C35.2645 38.2268 36.0389 39 37.0014 39H40.4752C41.4378 39 42.2122 38.2268 42.2122 37.2656V29.75H46.1781C47.3505 29.75 48.219 28.7094 47.9512 27.6182ZM26.0009 2H23.685C23.0482 2 22.5271 2.52031 22.5271 3.15625V37.8438C22.5271 38.4797 23.0482 39 23.685 39H26.0009C26.6378 39 27.1589 38.4797 27.1589 37.8438V3.15625C27.1589 2.52031 26.6378 2 26.0009 2ZM14.7182 12.4352C13.6326 13.1434 12.3372 13.5625 10.9477 13.5625C9.55813 13.5625 8.26268 13.1434 7.17711 12.4352C5.39677 12.5869 4 14.0611 4 15.875V25.7031C4 26.6643 4.77438 27.4375 5.73692 27.4375H6.31589V37.2656C6.31589 38.2268 7.09026 39 8.0528 39H13.8425C14.8051 39 15.5794 38.2268 15.5794 37.2656V27.4375H16.1584C17.121 27.4375 17.8953 26.6643 17.8953 25.7031V15.875C17.8953 14.0611 16.4986 12.5869 14.7182 12.4352Z" fill="#155889"/>
<defs>
<filter id="filter0_f" x="9" y="40" width="33" height="20" filterUnits="userSpaceOnUse" color-interpolation-filters="sRGB">
<feFlood flood-opacity="0" result="BackgroundImageFix"/>
<feBlend mode="normal" in="SourceGraphic" in2="BackgroundImageFix" result="shape"/>
<feGaussianBlur stdDeviation="3" result="effect1_foregroundBlur"/>
</filter>
</defs>
</svg>
