<svg width="42" height="59" viewBox="0 0 42 59" fill="none" xmlns="http://www.w3.org/2000/svg">
<g filter="url(#filter0_f)">
<ellipse cx="20.5" cy="49" rx="10.5" ry="4" fill="#BDBDBD"/>
</g>
<path d="M41.6128 17.5357L37.3333 13.6889V3.5625C37.3333 3.24756 37.2104 2.94551 36.9916 2.72281C36.7728 2.50011 36.4761 2.375 36.1667 2.375H31.5C31.1906 2.375 30.8938 2.50011 30.675 2.72281C30.4562 2.94551 30.3333 3.24756 30.3333 3.5625V7.39738L22.9527 0.764453C22.4948 0.342148 21.622 0 21 0C20.378 0 19.5081 0.342148 19.0502 0.764453L0.383542 17.5379C0.153549 17.7744 0.0170393 18.0888 0 18.4211C0.0149019 18.7114 0.119249 18.9895 0.298229 19.216L1.85937 20.9816C2.10268 21.2039 2.40911 21.3416 2.73437 21.375C3.01638 21.3463 3.28561 21.241 3.51385 21.07L4.67323 20.0309V35.625C4.67323 36.2549 4.91906 36.859 5.35665 37.3044C5.79423 37.7498 6.38772 38 7.00656 38H35C35.6188 38 36.2123 37.7498 36.6499 37.3044C37.0875 36.859 37.3333 36.2549 37.3333 35.625V20.0302L38.4934 21.0692C38.7227 21.24 38.9925 21.3455 39.2751 21.375C39.5975 21.3407 39.9007 21.2026 40.1406 20.9809L41.7018 19.2138C41.8693 18.9813 41.9723 18.7073 42 18.4204C41.9665 18.0911 41.8309 17.7812 41.6128 17.5357V17.5357ZM21 13.0625C21.923 13.0625 22.8252 13.3411 23.5927 13.863C24.3601 14.385 24.9582 15.1268 25.3114 15.9948C25.6646 16.8627 25.7571 17.8178 25.577 18.7392C25.3969 19.6606 24.9525 20.507 24.2998 21.1713C23.6472 21.8356 22.8157 22.288 21.9104 22.4712C21.0052 22.6545 20.0669 22.5604 19.2141 22.2009C18.3614 21.8414 17.6326 21.2326 17.1198 20.4515C16.607 19.6703 16.3333 18.752 16.3333 17.8125C16.3333 16.5527 16.825 15.3445 17.7002 14.4537C18.5753 13.5629 19.7623 13.0625 21 13.0625ZM29.1667 33.25H12.8333C12.5239 33.25 12.2272 33.1249 12.0084 32.9022C11.7896 32.6795 11.6667 32.3774 11.6667 32.0625C11.6667 30.1728 12.4042 28.3606 13.7169 27.0244C15.0297 25.6882 16.8102 24.9375 18.6667 24.9375H23.3333C25.1898 24.9375 26.9703 25.6882 28.2831 27.0244C29.5958 28.3606 30.3333 30.1728 30.3333 32.0625C30.3333 32.3774 30.2104 32.6795 29.9916 32.9022C29.7728 33.1249 29.4761 33.25 29.1667 33.25Z" fill="#D6A77E"/>
<defs>
<filter id="filter0_f" x="4" y="39" width="33" height="20" filterUnits="userSpaceOnUse" color-interpolation-filters="sRGB">
<feFlood flood-opacity="0" result="BackgroundImageFix"/>
<feBlend mode="normal" in="SourceGraphic" in2="BackgroundImageFix" result="shape"/>
<feGaussianBlur stdDeviation="3" result="effect1_foregroundBlur"/>
</filter>
</defs>
</svg>
