<svg width="51" height="63" viewBox="0 0 51 63" fill="none" xmlns="http://www.w3.org/2000/svg">
<g filter="url(#filter0_f)">
<ellipse cx="25.5" cy="53" rx="10.5" ry="4" fill="#BDBDBD"/>
</g>
<path d="M26.5 4H38.5L40 43H10V32.3636L26.5 4Z" fill="white" stroke="white"/>
<path d="M28 3H38L37.5 4L31 4.5L28 3Z" fill="white"/>
<path d="M50.5298 21.2274L45.3333 16.5708V4.3125C45.3333 3.93125 45.1841 3.56562 44.9184 3.29603C44.6527 3.02645 44.2924 2.875 43.9167 2.875H38.25C37.8743 2.875 37.5139 3.02645 37.2483 3.29603C36.9826 3.56562 36.8333 3.93125 36.8333 4.3125V8.95473L27.8711 0.925391C27.3151 0.41418 26.2553 0 25.5 0C24.7447 0 23.6884 0.41418 23.1324 0.925391L0.465729 21.2301C0.186453 21.5164 0.0206905 21.8969 0 22.2992C0.0180952 22.6506 0.144802 22.9873 0.362135 23.2614L2.25781 25.3988C2.55326 25.6679 2.92534 25.8346 3.32031 25.875C3.66274 25.8403 3.98966 25.7127 4.26682 25.5057L5.67463 24.2479V43.125C5.67463 43.8875 5.97315 44.6188 6.5045 45.1579C7.03585 45.6971 7.75652 46 8.50797 46H42.5C43.2514 46 43.9721 45.6971 44.5035 45.1579C45.0348 44.6188 45.3333 43.8875 45.3333 43.125V24.247L46.742 25.5048C47.0204 25.7116 47.348 25.8393 47.6912 25.875C48.0826 25.8335 48.4508 25.6664 48.7422 25.3979L50.6379 23.2588C50.8413 22.9774 50.9664 22.6456 51 22.2983C50.9593 21.8997 50.7947 21.5246 50.5298 21.2274V21.2274ZM25.5 15.8125C26.6208 15.8125 27.7164 16.1497 28.6482 16.7816C29.5801 17.4134 30.3064 18.3114 30.7353 19.3621C31.1642 20.4127 31.2764 21.5689 31.0578 22.6843C30.8391 23.7997 30.2994 24.8242 29.5069 25.6284C28.7144 26.4325 27.7047 26.9802 26.6055 27.202C25.5063 27.4239 24.3669 27.31 23.3315 26.8748C22.296 26.4396 21.411 25.7026 20.7883 24.757C20.1657 23.8114 19.8333 22.6997 19.8333 21.5625C19.8333 20.0375 20.4304 18.575 21.4931 17.4966C22.5558 16.4183 23.9971 15.8125 25.5 15.8125ZM35.4167 40.25H15.5833C15.2076 40.25 14.8473 40.0986 14.5816 39.829C14.3159 39.5594 14.1667 39.1937 14.1667 38.8125C14.1667 36.525 15.0622 34.3312 16.6563 32.7137C18.2503 31.0962 20.4123 30.1875 22.6667 30.1875H28.3333C30.5877 30.1875 32.7497 31.0962 34.3437 32.7137C35.9378 34.3312 36.8333 36.525 36.8333 38.8125C36.8333 39.1937 36.6841 39.5594 36.4184 39.829C36.1527 40.0986 35.7924 40.25 35.4167 40.25Z" fill="white"/>
<path d="M46.6128 21.5357L42.3333 17.6889V7.5625C42.3333 7.24756 42.2104 6.94551 41.9916 6.72281C41.7728 6.50011 41.4761 6.375 41.1667 6.375H36.5C36.1906 6.375 35.8938 6.50011 35.675 6.72281C35.4562 6.94551 35.3333 7.24756 35.3333 7.5625V11.3974L27.9527 4.76445C27.4948 4.34215 26.622 4 26 4C25.378 4 24.5081 4.34215 24.0502 4.76445L5.38354 21.5379C5.15355 21.7744 5.01704 22.0888 5 22.4211C5.0149 22.7114 5.11925 22.9895 5.29823 23.216L6.85937 24.9816C7.10268 25.2039 7.40911 25.3416 7.73438 25.375C8.01638 25.3463 8.2856 25.241 8.51385 25.07L9.67323 24.0309V39.625C9.67323 40.2549 9.91906 40.859 10.3566 41.3044C10.7942 41.7498 11.3877 42 12.0066 42H40C40.6188 42 41.2123 41.7498 41.6499 41.3044C42.0875 40.859 42.3333 40.2549 42.3333 39.625V24.0302L43.4934 25.0692C43.7227 25.24 43.9925 25.3455 44.2751 25.375C44.5975 25.3407 44.9007 25.2026 45.1406 24.9809L46.7018 23.2138C46.8693 22.9813 46.9723 22.7073 47 22.4204C46.9665 22.0911 46.8309 21.7812 46.6128 21.5357ZM26 17.0625C26.923 17.0625 27.8252 17.3411 28.5927 17.863C29.3601 18.385 29.9582 19.1268 30.3114 19.9948C30.6646 20.8627 30.7571 21.8178 30.577 22.7392C30.3969 23.6606 29.9525 24.507 29.2998 25.1713C28.6472 25.8356 27.8157 26.288 26.9104 26.4712C26.0052 26.6545 25.0669 26.5604 24.2141 26.2009C23.3614 25.8414 22.6326 25.2326 22.1198 24.4515C21.607 23.6703 21.3333 22.752 21.3333 21.8125C21.3333 20.5527 21.825 19.3445 22.7002 18.4537C23.5753 17.5629 24.7623 17.0625 26 17.0625ZM34.1667 37.25H17.8333C17.5239 37.25 17.2272 37.1249 17.0084 36.9022C16.7896 36.6795 16.6667 36.3774 16.6667 36.0625C16.6667 34.1728 17.4042 32.3606 18.7169 31.0244C20.0297 29.6882 21.8102 28.9375 23.6667 28.9375H28.3333C30.1898 28.9375 31.9703 29.6882 33.2831 31.0244C34.5958 32.3606 35.3333 34.1728 35.3333 36.0625C35.3333 36.3774 35.2104 36.6795 34.9916 36.9022C34.7728 37.1249 34.4761 37.25 34.1667 37.25Z" fill="#D6A77E"/>
<defs>
<filter id="filter0_f" x="9" y="43" width="33" height="20" filterUnits="userSpaceOnUse" color-interpolation-filters="sRGB">
<feFlood flood-opacity="0" result="BackgroundImageFix"/>
<feBlend mode="normal" in="SourceGraphic" in2="BackgroundImageFix" result="shape"/>
<feGaussianBlur stdDeviation="3" result="effect1_foregroundBlur"/>
</filter>
</defs>
</svg>
