<svg width="62" height="61" viewBox="0 0 62 61" fill="none" xmlns="http://www.w3.org/2000/svg">
<path d="M25.5005 38.5L1.50049 13.5L31.0005 1L60.5005 13.5L36.5005 38.5H25.5005Z" fill="white" stroke="white"/>
<path d="M60.5228 11.52C43.9131 -3.84281 18.0802 -3.83719 1.47711 11.52C0.852733 12.0975 0.840545 13.0753 1.4443 13.6744L4.6543 16.8591C5.22992 17.4309 6.15617 17.4431 6.7543 16.8947C20.4343 4.36219 41.5637 4.35938 55.2465 16.8947C55.8446 17.4431 56.7709 17.43 57.3465 16.8591L60.5565 13.6744C61.1593 13.0753 61.1471 12.0975 60.5228 11.52ZM30.9999 30C27.6859 30 24.9999 32.6859 24.9999 36C24.9999 39.3141 27.6859 42 30.9999 42C34.314 42 36.9999 39.3141 36.9999 36C36.9999 32.6859 34.314 30 30.9999 30ZM50.0003 22.1634C39.1946 12.6075 22.7931 12.6178 11.9996 22.1634C11.3527 22.7353 11.3321 23.7281 11.9462 24.3337L15.1749 27.5203C15.7374 28.0753 16.6431 28.1128 17.2421 27.5953C25.1124 20.7919 36.9053 20.8069 44.7568 27.5953C45.3559 28.1128 46.2615 28.0762 46.824 27.5203L50.0528 24.3337C50.6678 23.7281 50.6462 22.7344 50.0003 22.1634V22.1634Z" fill="white"/>
<path d="M55.6023 12.6C41.7609 -0.202344 20.2335 -0.197656 6.39759 12.6C5.87728 13.0812 5.86712 13.8961 6.37025 14.3953L9.04525 17.0492C9.52494 17.5258 10.2968 17.5359 10.7952 17.0789C22.1953 6.63516 39.8031 6.63281 51.2054 17.0789C51.7039 17.5359 52.4757 17.525 52.9554 17.0492L55.6304 14.3953C56.1328 13.8961 56.1226 13.0812 55.6023 12.6ZM30.9999 28C28.2382 28 25.9999 30.2383 25.9999 33C25.9999 35.7617 28.2382 38 30.9999 38C33.7617 38 36 35.7617 36 33C36 30.2383 33.7617 28 30.9999 28ZM46.8335 21.4695C37.8289 13.5063 24.1609 13.5148 15.1663 21.4695C14.6273 21.9461 14.6101 22.7734 15.1218 23.2781L17.8124 25.9336C18.2812 26.3961 19.0359 26.4273 19.5351 25.9961C26.0937 20.3266 35.921 20.3391 42.464 25.9961C42.9632 26.4273 43.7179 26.3969 44.1867 25.9336L46.8773 23.2781C47.3898 22.7734 47.3718 21.9453 46.8335 21.4695V21.4695Z" fill="#72B163"/>
<g filter="url(#filter0_f)">
<ellipse cx="30.5" cy="51" rx="10.5" ry="4" fill="#BDBDBD"/>
</g>
<defs>
<filter id="filter0_f" x="14" y="41" width="33" height="20" filterUnits="userSpaceOnUse" color-interpolation-filters="sRGB">
<feFlood flood-opacity="0" result="BackgroundImageFix"/>
<feBlend mode="normal" in="SourceGraphic" in2="BackgroundImageFix" result="shape"/>
<feGaussianBlur stdDeviation="3" result="effect1_foregroundBlur"/>
</filter>
</defs>
</svg>
