<svg width="50" height="58" viewBox="0 0 50 58" fill="none" xmlns="http://www.w3.org/2000/svg">
<g filter="url(#filter0_f)">
<ellipse cx="25.5" cy="48" rx="10.5" ry="4" fill="#BDBDBD"/>
</g>
<path d="M49.6023 9.6C35.7609 -3.20234 14.2335 -3.19766 0.39759 9.6C-0.122723 10.0812 -0.132879 10.8961 0.370246 11.3953L3.04525 14.0492C3.52494 14.5258 4.29681 14.5359 4.79525 14.0789C16.1953 3.63516 33.8031 3.63281 45.2054 14.0789C45.7039 14.5359 46.4757 14.525 46.9554 14.0492L49.6304 11.3953C50.1328 10.8961 50.1226 10.0812 49.6023 9.6ZM24.9999 25C22.2382 25 19.9999 27.2383 19.9999 30C19.9999 32.7617 22.2382 35 24.9999 35C27.7617 35 30 32.7617 30 30C30 27.2383 27.7617 25 24.9999 25ZM40.8335 18.4695C31.8289 10.5063 18.1609 10.5148 9.16634 18.4695C8.62728 18.9461 8.61009 19.7734 9.12181 20.2781L11.8124 22.9336C12.2812 23.3961 13.0359 23.4273 13.5351 22.9961C20.0937 17.3266 29.921 17.3391 36.464 22.9961C36.9632 23.4273 37.7179 23.3969 38.1867 22.9336L40.8773 20.2781C41.3898 19.7734 41.3718 18.9453 40.8335 18.4695V18.4695Z" fill="#72B163"/>
<defs>
<filter id="filter0_f" x="9" y="38" width="33" height="20" filterUnits="userSpaceOnUse" color-interpolation-filters="sRGB">
<feFlood flood-opacity="0" result="BackgroundImageFix"/>
<feBlend mode="normal" in="SourceGraphic" in2="BackgroundImageFix" result="shape"/>
<feGaussianBlur stdDeviation="3" result="effect1_foregroundBlur"/>
</filter>
</defs>
</svg>
